<svg version="1.2" xmlns="http://www.w3.org/2000/svg" viewBox="0 0 1512 279" width="1512" height="279"><style>.a{fill:#a8d1e6}.b{fill:#c1eaff}</style><path class="a" d="m1482.7 137.3c5.2-8.2 7.2-13.3 3.2-11.9-3 1.1-8.2 4.7-14.1 9.7-4.1-0.7-8.4-1.3-12.6-1.8 17.6-23.2 32.3-44 27.4-43.7-5 0.2-28.7 21.3-51.2 42.4q-9.2 0.1-18.2 0.9c20.1-35.8 42.1-79.4 42.1-79.4-10 5.3-44.1 50.5-68.1 83.4q-4 0.9-8 2c14-32.4 29.2-75.1 29.2-75.1-14.4 9.9-40.2 57-54.3 84.1l-2 0.9c9.5-27.4 18.3-67.9 18.3-67.9-20.4 16-29.8 39.6-34.3 58.1-0.6-30-13.1-59.4-13.1-59.4-12.6 18-14.6 54.7-14.7 75.6-16.2-12.7-37-22.1-60.2-27.3 5.4-5.2 8.8-11.3 10-17.6-11 2.2-20.4 9.3-26.4 14.7l-1.1-0.2c2.8-6.4 3-13.3 0.6-19.8-8.1 4-13.3 11.5-16.3 17.6-3.7-3.7-8.2-6.8-13.4-9.4q-0.1 0.2-0.2 0.5-2.1-1.4-4.5-2.5c-1.2 3.9-1.1 8 0.5 11.9-51.1 1.4-94.8 20.9-116.1 48.7-5.1-17.6-10.7-32.3-13.4-27.5-3.6 6.8-4 35.4-4 52.5h-3.8c-9.8-27.7-34.5-83.1-38.9-74.9-4.4 8.1 9.4 57.3 14.5 74.9h-0.8c-11.2-26-44.6-106.1-50.9-101.7-6.4 4.5 14 84.6 18.4 101.7h-0.6c-13-27.7-76-116.5-76-116.5-2.3 10.7 35.4 87.3 50.1 116.5h-1c-19.7-28.6-72.7-88.6-72.7-88.6-0.3 14.1 32.5 63.2 50.3 88.6h-1.4c-21.7-24.5-59-59.5-59-59.5 0.9 8.3 3.8 16.5 8.4 24.2-21.6-9.8-46.6-15.4-72.3-16.3-25.7-0.9-51.3 3-74.2 11.3-11-7.5-25.5-11.9-40.9-12.4-15.3-0.5-30.4 2.9-42.4 9.6-7.3-2.7-14.8-4.9-22.6-6.7 5.4-5.2 8.9-11.3 10-17.7-10.9 2.3-20.3 9.4-26.3 14.8l-1.1-0.2c2.7-6.4 2.9-13.3 0.6-19.8-8.2 4-13.3 11.5-16.3 17.6-3.7-3.7-8.2-6.9-13.5-9.4 0 0.1-0.1 0.3-0.1 0.4q-2.1-1.3-4.5-2.4c-1.3 3.9-1.1 8 0.4 11.9-18.4 0.4-36.6 3.3-53.4 8.6-16.9 5.3-32 12.9-44.6 22.3-20.5-7.3-43.1-11-66-11q-8.7 0-17.3 0.8c2.3-6.2 2.4-12.6 0.1-18.8-7 3.5-11.7 9.5-14.8 14.9-3.9-4.2-8.9-7.8-14.8-10.7-2.3 5.8 0.2 12.7 3.4 18.4-17.7 3.8-34.1 10-48.3 18.2-6.2-5.6-13.3-10.7-21.2-15.2 9.5-19.2 21.5-47.9 14.7-43.6-6.1 4-21.2 23.3-30.7 35.9-1-0.5-2-0.9-3.1-1.3 8.1-23.1 19.5-66.4 12-61.6-7.5 4.8-23 40.2-29.7 55.8l-0.9-0.3c6.8-23.6 25-85.2 18.2-83.5-6.9 1.7-36.6 65.6-42.6 78.7h-0.4c5.8-22.9 8.7-102.7 8.7-102.7-8.2 7.8-24.3 81.1-28.5 101.1h-0.2c2.5-22.3-4.1-86-4.1-86-9.3 11.9-11.8 69.1-12.3 85.6-0.3-21.1-11-66.6-11-66.6-9.8 15.2-8.9 34.4-5.9 49.4q-0.3-0.4-0.6-0.8c-8-14.9-18.4-29.2-30.9-42.6-0.9 6.5-0.6 13 1 19.4-30.6-17.6-69-27.3-108.7-27.3 4.5-4.8 7.3-10.3 8.3-16-12.2 2.5-22.7 11.2-28.3 16.6 3.6-7 4.1-14.6 1.5-21.8-8.1 4-13.2 11.4-16.2 17.5-3.7-3.6-8.3-6.8-13.5-9.4 0 0.2-0.1 0.3-0.1 0.5q-2.2-1.4-4.5-2.5c-2.4 6.2 0.5 13.7 4 19.5-9.1 1.8-18.1 4.1-26.7 6.8v190.2h1527v-129.6c-11.6-6-24.4-10.6-38.1-13.8z"/><path class="b" d="m1505.4 227.8c-3.7 0-7.3 0.5-10.7 1.7 3.6-7 4.9-14.4 3.9-21.7-5.5 3.6-9.5 8.1-11.7 13.2 0.8-8-1.4-16-6.4-23.3-2.7 4.6-4.1 9.5-4.3 14.4-8.5-7.7-19.9-12.4-32.3-12.4-11 0-21.2 3.7-29.3 9.9-0.5-6.2-2.8-12.3-6.8-17.9-3.2 5.8-4.6 12-3.9 18.1-4.2-4.8-10.7-8.4-18.3-10.2 4.9-20 7.8-37.6 2.5-33.1-5.3 4.4-14.7 20.1-23.1 35.2-3.3 1.5-6.3 3.3-8.8 5.5q-1-0.9-2.1-1.7c4.9-32.4 8.8-79.5 1.2-73.1-6.8 5.7-16.7 40.4-22.9 64.2q-1.4-0.2-2.9-0.3c4.4-37.3 11.8-102.7 4.5-100.1-8.7 3.1-34.2 96-38 110l-0.3 0.2c3.3-28.6-9.5-139.2-9.5-139.2-8.9 11.4-14.5 116.1-15.7 139.4-0.3-27.8-22.4-116.5-22.4-116.5-9.3 16.8-1 93.1 1.7 115.1-4.6-27.9-27.2-87.7-27.2-87.7-9.5 21.5-4.1 47.7 3 67.5-19-30-48.8-56.2-48.8-56.2-0.7 18.5 14.4 48.9 26.7 70.4q-4.8-0.6-9.8-0.6c-13.3 0-26.1 3.6-35.9 9.8-0.7-6.3-3.6-12.4-8.4-17.8-3.9 5.6-5.6 11.9-4.8 18.1-3.6-3.3-8.3-6-13.6-7.9-5.4-1.9-11.3-2.9-17.3-3-5.1 0-10.2 0.8-14.9 2.2-4.7 1.4-9 3.4-12.5 6-10.1-7-23.6-10.9-37.8-11-20.9 0-39.3 8.8-49.8 22.1-1.2-5.1-3.9-10.1-7.8-14.5-4.1 5.8-5.7 12.2-4.7 18.7-3.8-3.7-8.5-6.8-14-9.1-0.5 6.5 1.7 12.9 6.2 18.6q-3.1 0.5-6.1 1.3c-6.6-3.5-14.7-5.5-23.1-5.5-4.5 0-8.9 0.6-13.1 1.7 4.4-6.8 6.1-14.4 4.9-21.8-6.5 3.3-11.5 7.9-14.4 13.1 0.9-8.1-1.9-16.1-7.9-23.1-3.3 4.5-5.1 9.4-5.2 14.4-5.1-3.8-11.2-6.9-18-9.1-6.9-2.1-14.3-3.2-21.8-3.3-13.3 0.1-26.1 3.6-35.9 9.9-0.7-6.4-3.6-12.5-8.4-17.9-3.9 5.7-5.6 11.9-4.8 18.1-3.6-3.3-8.3-6-13.6-7.9-5.4-1.9-11.3-2.9-17.3-3-5.1 0.1-10.2 0.8-14.9 2.2-4.7 1.4-9 3.5-12.5 6.1-10.1-7-23.6-11-37.8-11.1-20.9 0-39.3 8.8-49.8 22.2-1.2-5.2-3.9-10.1-7.8-14.6-4.1 5.8-5.7 12.3-4.7 18.7-3.8-3.7-8.5-6.7-14-9.1-0.5 6.5 1.7 13 6.2 18.6-3.8 0.6-7.4 1.6-10.8 3-7-4.6-16.2-7.1-25.8-7.1-4.5 0-8.9 0.5-13.1 1.7 4.4-6.9 6-14.4 4.8-21.8-6.5 3.3-11.5 7.9-14.4 13.1 0.9-8.1-1.9-16.1-7.9-23.1-3.3 4.5-5 9.4-5.2 14.4-5.1-3.8-11.2-6.9-18-9.1-6.9-2.1-14.3-3.2-21.7-3.3-13.3 0.1-26.1 3.6-35.9 9.9-0.8-6.4-3.7-12.5-8.5-17.9-3.9 5.7-5.5 11.9-4.7 18.1-3.7-3.3-8.4-6-13.7-7.9-5.4-1.9-11.3-2.9-17.3-3-5.2 0-10.2 0.8-14.9 2.2-4.8 1.4-9 3.5-12.6 6-10-7-23.5-10.9-37.7-11-20.9 0-39.3 8.8-49.8 22.1-1.2-5.1-3.9-10.1-7.9-14.5-4 5.8-5.6 12.3-4.7 18.7-3.7-3.7-8.4-6.8-13.9-9.1-0.5 6.5 1.6 12.9 6.2 18.6q-3.1 0.5-6.1 1.3c-6.6-3.5-14.7-5.5-23.1-5.5-4.5 0-8.9 0.6-13.2 1.7 4.5-6.8 6.1-14.3 4.9-21.7-6.5 3.3-11.4 7.9-14.3 13.1 0.9-8.1-1.9-16.1-8-23.1-3.2 4.5-5 9.4-5.2 14.4-4.4-3.2-9.6-6-15.3-8.1 8.4-30.2 13.5-56.8 5.3-50.2-7.1 5.8-20 25.6-32.3 46-6.6 0.2-13.2 1.3-19.2 3.3 8.1-48.1 14.4-110.4 3.3-101.5-11 8.9-28.9 66.9-39 102.6q-1.7-0.8-3.4-1.6c8.1-55.1 23.3-160.1 11.8-156.2-12.3 4.2-50 125.3-60.4 159.5q-0.7-0.5-1.5-0.9c4.1-52.2-9.2-203.4-9.2-203.4-12.3 15.2-24.1 142-28.5 194.6-0.7 0-1.3 0-2.1 0.1-4.2-52.6-28-160.9-28-160.9-14.3 24.4-6 133.7-2.7 170.8l-0.2 0.1c-6.8-43.6-36.9-130-36.9-130-15.2 32.4-8.2 72.1 1.6 102.3-27.3-45.7-71.3-86.1-71.3-86.1-3 43.9 51.6 132.5 58.8 144-12.1 6-20.1 16.7-20.1 29.1-0.1 5.5 1.6 11.1 5 16.1h1262.4l0.6 1.2h288.8c4.3-6.2 6.5-13 6.4-19.9 0-18.8-15.4-34-34.4-34z"/></svg>